<svg width="44" height="44" viewBox="0 0 44 44" fill="none" xmlns="http://www.w3.org/2000/svg">
<path d="M7.875 30.375C12.7917 28.375 17.5 27.375 22 27.375C26.5 27.375 31.1667 28.375 36 30.375C40.9167 32.2917 43.375 34.8333 43.375 38V43.375H0.625V38C0.625 34.8333 3.04167 32.2917 7.875 30.375ZM29.5 18.875C27.4167 20.9583 24.9167 22 22 22C19.0833 22 16.5833 20.9583 14.5 18.875C12.4167 16.7917 11.375 14.2917 11.375 11.375C11.375 8.45833 12.4167 5.95833 14.5 3.875C16.5833 1.70833 19.0833 0.625 22 0.625C24.9167 0.625 27.4167 1.70833 29.5 3.875C31.5833 5.95833 32.625 8.45833 32.625 11.375C32.625 14.2917 31.5833 16.7917 29.5 18.875Z" fill="#F27A54"/>
</svg>
