<?xml version="1.0" encoding="utf-8"?>
<!-- Generator: Adobe Illustrator 24.1.2, SVG Export Plug-In . SVG Version: 6.00 Build 0)  -->
<svg version="1.1" xmlns="http://www.w3.org/2000/svg" xmlns:xlink="http://www.w3.org/1999/xlink" x="0px" y="0px"
	 viewBox="0 0 7680 4320" style="enable-background:new 0 0 7680 4320;" xml:space="preserve">
<style type="text/css">
	.st0{display:none;}
	.st1{fill:#FFFFFF;stroke:#000000;stroke-width:50;stroke-linecap:round;stroke-linejoin:round;stroke-miterlimit:10;}
	.st2{fill:#419A1C;}
	.st3{fill:#E84723;}
	.st4{fill:#FFC400;}
	.st5{fill:#8DCAFF;}
	.st6{fill:none;stroke:#000000;stroke-width:75.9001;stroke-linecap:round;stroke-linejoin:round;stroke-miterlimit:10;}
</style>
<g id="Layer_1" class="st0">
</g>
<g id="Layer_12">
	<g id="Layer_6">
	</g>
	<g id="Layer_3">
	</g>
	<g id="Layer_2">
	</g>
	<g id="Layer_5">
	</g>
</g>
<g id="Layer_18">
	<g id="Layer_6_copy">
	</g>
	<g id="Layer_3_copy">
	</g>
	<g id="Layer_2_copy">
	</g>
	<g id="Layer_4_copy">
	</g>
</g>
<g id="Layer_18_copy">
	<g id="Layer_6_copy_3">
		<g>
			<path d="M1717.24,2948.13c0,106.31-23.95,191.22-71.83,254.7c-47.89,63.5-112.55,95.23-193.95,95.23
				c-62.88,0-114.55-22.98-155.05-68.97v318.97h-213.25v-948h199.33l6.33,63.94c40.92-50.63,94.72-75.94,161.38-75.94
				c84.38,0,149.97,31.13,196.8,93.34s70.25,147.75,70.25,256.59V2948.13z M1503.97,2934.86c0-121.19-35.44-181.8-106.31-181.8
				c-50.63,0-84.38,18.09-101.25,54.28v268.91c18.56,37.88,52.73,56.81,102.52,56.81c67.92,0,102.94-58.48,105.05-175.48V2934.86z"
				/>
			<path d="M2100.78,3285.07h-213.89v-972h213.89V3285.07z"/>
			<path d="M2682.59,3285.07c-7.59-13.84-14.34-34.22-20.25-61.09c-39.23,49.41-94.08,74.09-164.53,74.09
				c-64.55,0-119.39-19.5-164.53-58.53s-67.7-88.08-67.7-147.16c0-74.25,27.42-130.38,82.27-168.34s134.58-56.97,239.2-56.97h65.81
				v-36.25c0-63.16-27.22-94.75-81.64-94.75c-50.63,0-75.94,25.02-75.94,75.03h-213.25c0-66.13,28.16-119.83,84.47-161.11
				s128.14-61.92,215.47-61.92s156.31,21.3,206.94,63.89s76.56,100.98,77.84,175.19v302.97c0.84,62.83,10.55,110.89,29.11,144.2
				v10.75H2682.59z M2549.07,3146.07c26.56,0,48.61-5.69,66.13-17.06c17.5-11.38,30.06-24.23,37.66-38.56v-109.38h-62.02
				c-74.25,0-111.38,33.3-111.38,99.89c0,19.39,6.53,35.09,19.61,47.09C2512.15,3140.07,2528.82,3146.07,2549.07,3146.07z"/>
			<path d="M3298,2430.07v170h112.64v148H3298v313.88c0,25.8,4.64,43.77,13.92,53.91c9.28,10.16,27.63,15.22,55.05,15.22
				c21.09,0,38.81-1.27,53.16-3.8v152.45c-38.39,12.22-78.47,18.34-120.23,18.34c-73.41,0-127.63-17.31-162.64-51.95
				s-52.52-87.23-52.52-157.78v-340.27h-87.33v-148h87.33v-170H3298z"/>
			<path d="M3767.95,2674.08c45.56-57.34,103.78-86.02,174.66-86.02c75.52,0,132.47,22.36,170.86,67.05
				c38.39,44.7,58.02,110.69,58.86,197.97v431.98h-213.89v-426.48c0-36.22-7.39-62.86-22.16-79.92s-39.86-25.59-75.3-25.59
				c-43.88,0-74.89,13.91-93.03,41.7v490.3H3554.7v-972h213.25V2674.08z"/>
			<path d="M4686.83,3298.07c-105.05,0-190.05-31.31-255.02-93.97c-64.97-62.64-97.45-144.17-97.45-244.58v-17.72
				c0-70.03,12.97-131.83,38.91-185.41s63.81-95.03,113.59-124.34s108.84-43.98,177.19-43.98c96.19,0,172.13,29.92,227.81,89.73
				c55.69,59.83,83.53,143.22,83.53,250.19v83.08h-423.98c7.59,37.97,24.25,67.78,49.98,89.47s59.06,32.53,100,32.53
				c67.5,0,120.23-23.36,158.2-70.08l97.45,115.02c-26.59,36.66-64.25,65.83-112.97,87.52S4742.94,3298.07,4686.83,3298.07z
				 M4662.78,2753.07c-62.44,0-99.56,41.34-111.38,124h215.16v-16.45c0.84-34.16-7.81-60.61-25.95-79.39
				C4722.47,2762.46,4696.53,2753.07,4662.78,2753.07z"/>
			<path d="M5717.31,3003.97l68.97-403.91h204.41l-161.38,685h-180.34l-113.28-406.44l-113.91,406.44h-180.34l-161.38-685h204.41
				l67.7,413.41l108.84-413.41h148.72L5717.31,3003.97z"/>
			<path d="M6129.98,2423.07c0-30.44,10.97-55.38,32.91-74.83c21.94-19.44,50.41-29.17,85.42-29.17s63.5,9.73,85.44,29.17
				c21.94,19.45,32.91,44.39,32.91,74.83s-10.97,55.39-32.91,74.83c-21.94,19.45-50.42,29.17-85.44,29.17s-63.48-9.72-85.42-29.17
				C6140.94,2478.46,6129.98,2453.51,6129.98,2423.07z M6356.52,3285.07h-213.89v-685h213.89V3285.07z"/>
		</g>
	</g>
	<g id="Layer_3_copy_3">
		<polygon class="st2" points="1509.67,2062.25 700,692.93 2319.33,692.93 		"/>
		<polygon class="st3" points="4459.67,2062.25 3650,692.93 5269.33,692.93 		"/>
		<polygon class="st4" points="3049.67,672.93 2240,2042.25 3859.33,2042.25 		"/>
		<polygon class="st5" points="5924.67,651.93 5115,2021.25 6734.33,2021.25 		"/>
	</g>
	<g id="Layer_2_copy_3">
		<polygon class="st6" points="1579.67,2052.25 770,682.93 2389.33,682.93 		"/>
		<polygon class="st6" points="4389.67,2052.25 3580,682.93 5199.33,682.93 		"/>
		<polygon class="st6" points="2979.67,682.93 2170,2052.25 3789.33,2052.25 		"/>
		<polygon class="st6" points="5824.67,682.93 5015,2052.25 6634.33,2052.25 		"/>
	</g>
	<g id="Layer_4_copy_2">
		<line class="st6" x1="3545.78" y1="1635.84" x2="2665.11" y2="1219.43"/>
		<line class="st6" x1="1267.25" y1="1523.89" x2="1877.25" y2="1523.89"/>
		<line class="st6" x1="1855.56" y1="682.93" x2="2119.45" y2="1139.37"/>
		<line class="st6" x1="4692.89" y1="682.93" x2="4979.64" y2="1054.48"/>
		<line class="st6" x1="4490.22" y1="682.93" x2="4891.68" y2="1203.24"/>
		<polyline class="st6" points="5459.27,1300.9 5824.67,1300.9 6190.06,1300.9 		"/>
	</g>
</g>
<g id="Layer_19">
	<g id="Layer_6_copy_2">
	</g>
	<g id="Layer_3_copy_2">
	</g>
	<g id="Layer_2_copy_2">
	</g>
	<g id="Layer_5_copy_2">
	</g>
</g>
</svg>
